<?xml version="1.0" encoding="UTF-8" standalone="no"?>
<svg width="158px" height="75px" viewBox="0 0 158 75" version="1.1" xmlns="http://www.w3.org/2000/svg" xmlns:xlink="http://www.w3.org/1999/xlink">
    <!-- Generator: Sketch 39.1 (31720) - http://www.bohemiancoding.com/sketch -->
    <title>Group 2</title>
    <desc>Created with Sketch.</desc>
    <defs></defs>
    <g id="Symbols" stroke="none" stroke-width="1" fill="none" fill-rule="evenodd">
        <g id="desktop-nav-contents" transform="translate(-38.000000, 0.000000)">
            <g id="Group-37">
                <g id="Group-2" transform="translate(38.000000, 0.000000)">
                    <path d="M23.3313333,10.7335714 C26.9233423,9.87 30.3146486,8.38142857 33.8269459,7.245 C29.9260541,7.16714286 26.5681982,8.93071429 23.3313333,10.7335714 L23.3313333,10.7335714 Z M68.9449369,0.471428571 C78.9736667,1.05642857 88.6515225,4.54714286 96.5344414,10.93 L103.281468,3.48714286 C103.635189,5.95428571 103.438045,8.77285714 103.478613,11.5542857 C108.002252,12.2185714 112.530162,12.885 117.055937,13.5521429 L103.552631,19.3442857 C103.552631,23.2235714 103.670775,26.4721429 103.478613,30.2721429 L94.8548018,23.2235714 C89.9375856,25.26 85.1755225,27.7271429 80.3401532,30 C82.8354144,26.3178571 86.5434324,22.5957143 89.3525586,18.7985714 C85.9164144,15.5071429 81.5877838,12.1792857 78.1153423,8.85142857 C86.268,10.3007143 94.1494955,12.6885714 101.212523,16.5278571 C88.0643604,4.93571429 69.803973,-0.0378571429 52.2453333,4.15357143 C47.093964,4.27142857 42.0223063,5.24785714 37.1065135,6.18785714 C36.6367838,6.26642857 36.3243423,5.99357143 35.9748919,5.83857143 C45.4933243,2.70214286 55.4836216,0.318571429 66.4091081,0.275 C67.8047748,0.360714286 68.9449369,0.471428571 68.9449369,0.471428571 L68.9449369,0.471428571 Z" id="Fill-3" fill="#E6251D"></path>
                    <g id="Group" transform="translate(0.000000, 32.142857)" fill="#002455">
                        <path d="M66.4667568,38.5228571 C64.9600631,40.1407143 62.526009,40.6221429 60.3673874,40.0692857 C58.8628288,39.7257143 57.2493784,38.6607143 56.8394324,37.0414286 C56.2907027,35.46 56.6679099,33.7778571 57.832982,32.5035714 C59.5111982,30.685 62.047027,30.75 64.2405225,31.1664286 C65.300973,31.6114286 66.3308198,32.4042857 66.9478739,33.3992857 C67.7691892,34.9121429 67.5976667,37.2185714 66.4667568,38.5228571 L66.4667568,38.5228571 Z M57.7290721,30.34 C55.9142072,31.5771429 54.816036,33.5014286 54.8509099,35.5328571 C54.8843604,37.5571429 55.7405495,39.4528571 57.4216126,40.5878571 C59.9916036,42.3042857 63.4853964,42.2742857 66.2269099,40.8935714 C67.5976667,39.965 68.7947658,38.7321429 69.1043604,37.115 C69.3449189,35.0842857 69.2054234,32.8164286 67.5976667,31.3378571 C65.0276757,28.7928571 60.7773333,28.8257143 57.7290721,30.34 L57.7290721,30.34 Z" id="Fill-5"></path>
                        <polyline id="Fill-6" points="74.5176396 9.05642857 74.5176396 0.802857143 55.9476577 0.802857143 55.9476577 9.05642857 60.8826667 9.05642857 60.8897838 25.5135714 69.7690991 25.5135714 69.7541532 9.05642857 74.5176396 9.05642857"></polyline>
                        <path d="M13.8378108,14.2478571 L15.3815135,9.22857143 C15.3815135,9.22857143 16.9565315,13.905 17.0262793,14.0771429 C16.0661802,14.1121429 14.8320721,14.0057143 13.8378108,14.2478571 L13.8378108,14.2478571 Z M46.1274595,12.9842857 L38.1605586,0.802857143 L29.7025766,0.802857143 L29.7438559,22.9328571 L22.542045,0.802857143 L8.3925045,0.802857143 L0.510297297,25.6535714 L10.0351351,25.63 L11.4421892,21.1935714 C10.1041712,21.5735714 8.83661261,22.4314286 7.56905405,22.8435714 C9.96823423,19.0642857 14.0449189,17.4785714 18.2575405,17.55 L21.0004775,25.63 L38.1648288,25.63 L38.1591351,13.7442857 L46.1495225,25.63 L54.4416757,25.63 L54.4416757,0.802857143 L46.1352883,0.802857143 L46.1274595,12.9842857 L46.1274595,12.9842857 Z" id="Fill-7"></path>
                        <path d="M81.7464955,36.7535714 L76.9865676,29.6157143 L75.3418018,29.6392857 L75.3418018,41.6435714 L76.9865676,41.6435714 L76.9865676,32.7457143 L81.7464955,39.2478571 C83.3222252,37.2185714 84.8673514,34.9614286 86.509982,32.7192857 L86.509982,41.6521429 L88.0857117,41.6435714 L88.1205856,29.6157143 L86.4907658,29.6157143 L81.7464955,36.7535714" id="Fill-8"></path>
                        <path d="M46.9722613,29.6157143 L46.9722613,34.2228571 L38.5754865,34.2228571 L38.5754865,29.6135714 L36.6503063,29.6157143 L36.7214775,41.6521429 L38.5313604,41.6521429 C38.5242432,41.4907143 38.5754865,36.1507143 38.5754865,36.1507143 L46.9722613,36.115 L47.0384505,41.6521429 L48.8554505,41.6521429 L48.8412162,29.6157143 L46.9722613,29.6157143" id="Fill-9"></path>
                        <polyline id="Fill-10" points="95.1444685 41.6435714 106.097712 41.665 106.097712 39.9907143 96.7522252 39.9907143 96.775 35.86 102.956928 35.86 102.956928 34.285 96.7493784 34.2942857 96.7493784 31.1664286 106.097712 31.1664286 106.097712 29.6392857 95.1444685 29.6157143 95.1444685 41.6435714"></polyline>
                        <path d="M110.767964,11.1157143 C110.014261,11.7035714 108.950964,11.8071429 107.990865,11.6007143 L108.062036,7.47214286 C109.224973,7.61142857 110.664054,7.43785714 111.17791,8.71214286 C111.31527,9.53428571 111.420604,10.5321429 110.767964,11.1157143 L110.767964,11.1157143 Z M83.0489279,14.0771429 L84.5556216,9.05642857 C85.2096847,10.5692857 85.5854685,12.3564286 86.0986126,14.0057143 C85.036027,13.905 84.0787748,13.8007143 83.0489279,14.0771429 L83.0489279,14.0771429 Z M157.464081,14.3485714 C156.748099,12.46 154.694099,10.7742857 152.704153,10.2235714 C151.095685,9.43571429 149.006811,9.84642857 147.601892,8.57357143 C147.260982,7.88428571 147.873766,7.33357143 148.352748,6.99357143 C150.687162,6.235 152.808775,7.47214286 154.694099,8.57357143 L157.090432,2.26928571 C152.908414,-0.447857143 145.819766,-0.985714286 141.845568,2.45357143 C139.309739,4.51571429 138.107658,7.74928571 138.657811,10.9478571 C139.548162,15.3792857 144.310937,16.0685714 147.944225,16.6542857 L148.697928,17.3078571 C148.868739,17.8592857 148.764829,18.5114286 148.283712,18.8892857 C145.408396,20.06 142.701045,18.3735714 140.475523,16.8264286 C139.78445,17.9621429 139.652784,19.3042857 138.965982,20.4364286 C138.726847,19.9535714 138.866342,19.375 138.83218,18.8892857 L131.01545,18.9971429 L131.086622,16.4828571 L137.837207,16.3121429 L137.788811,9.72071429 L131.01545,9.71 C131.053883,8.91714286 131.01545,7.19142857 131.01545,7.19142857 L138.488423,7.23214286 C138.36245,7.14214286 138.524721,0.802857143 138.524721,0.802857143 L121.961766,0.802857143 L121.869955,24.9757143 C119.74336,21.9864286 117.586162,18.9235714 115.460279,16.0014286 C116.888685,15.565 118.524198,14.6714286 119.172568,13.3878571 C120.855054,10.0771429 120.425892,6.805 119.114919,4.21928571 C117.405387,0.837857143 115.571306,0.802857143 98.8937658,0.802857143 L99.0176036,21.6064286 C96.7863874,14.5907143 94.5608649,7.57642857 92.3680811,0.559285714 L78.3900631,0.559285714 L78.1174775,0.734285714 L72.9419099,17.4785714 L70.4758288,25.63 L80.0326937,25.63 L81.4034505,21.0235714 C79.7729189,21.5264286 77.5687477,22.6014286 77.5687477,22.6014286 C79.4184865,19.7485714 82.4332973,17.9971429 85.6203423,17.55 C86.374045,17.55 87.3661712,17.1707143 88.1554595,17.55 C88.9084505,20.2992857 89.9361622,22.95 90.7909279,25.63 L107.88909,25.5607143 L107.990865,17.7207143 L112.002784,25.5607143 L113.643991,25.63 L138.898369,25.4914286 C138.999432,25.0442857 138.657811,24.595 139.068468,24.2514286 C144.038351,26.25 150.993198,27.1078571 155.340333,23.1521429 C157.809973,20.8521429 158.427027,17.55 157.464081,14.3485714 L157.464081,14.3485714 Z" id="Fill-12"></path>
                        <path d="M121.458586,35.0521429 C119.025243,33.57 115.840333,34.9442857 113.643991,33.2307143 C113.267495,32.5721429 113.574955,31.8164286 114.159982,31.3378571 C116.486568,30.0978571 119.264378,31.0285714 121.458586,32.1621429 L122.213,30.9221429 C119.50636,29.065 115.322207,28.3457143 112.582117,30.5814286 C111.933748,31.3714286 111.762225,32.3692857 111.933748,33.3307143 C112.036946,34.5678571 113.267495,35.0842857 114.296631,35.3957143 C116.763423,36.0821429 119.95118,34.7757143 121.284216,37.46 C121.593099,38.2121429 120.87427,39.0735714 120.397423,39.6585714 C117.929919,41.2071429 114.565658,39.9907143 112.336577,38.7557143 L111.520955,40.0042857 C112.412018,40.6542857 113.374252,41.0992857 114.399117,41.4107143 C117.070883,42.1342857 120.635135,42.4057143 122.451423,39.9307143 C122.998018,39.1035714 123.139649,38.0414286 122.928982,37.0414286 C122.622946,36.2871429 122.279901,35.4257143 121.458586,35.0521429" id="Fill-14"></path>
                    </g>
                </g>
            </g>
        </g>
    </g>
</svg>